<svg width="359" height="1024" viewBox="0 0 359 1024" fill="none" xmlns="http://www.w3.org/2000/svg">
<path fill-rule="evenodd" clip-rule="evenodd" d="M27.8462 1024L34.8077 989.867C41.7692 955.733 55.6923 887.467 104.423 819.2C153.154 750.933 236.692 682.667 243.654 614.4C250.615 546.133 181 477.867 118.346 409.6C55.6923 341.333 0 273.067 0 204.8C0 136.533 55.6923 68.2666 83.5385 34.1333L111.385 -2.47955e-05H362V34.1333C362 68.2666 362 136.533 362 204.8C362 273.067 362 341.333 362 409.6C362 477.867 362 546.133 362 614.4C362 682.667 362 750.933 362 819.2C362 887.467 362 955.733 362 989.867V1024H27.8462Z" fill="#47B2A8"/>
</svg>
